<svg xmlns="http://www.w3.org/2000/svg" baseProfile="full" version="1.1" style="fill: none;" width="840px" height="570px"><path style="stroke-width: 15px; stroke-linecap: round; stroke-linejoin: round; stroke: rgb(106, 106, 106); fill: none;" d=""/><path style="stroke-width: 15px; stroke-linecap: round; stroke-linejoin: round; stroke: rgb(74, 74, 74); fill: none;" d=""/><path style="stroke-width: 6px; stroke-linecap: round; stroke-linejoin: round; stroke: rgb(10, 10, 10); fill: none;" d="M60,120 A60,60 0 0,1 120,60 L120,60 L720,60 A60,60 0 0,1 780,120 L780,120 L780,420 A60,60 0 0,1 720,480 L720,480 L120,480 A60,60 0 0,1 60,420 L60,420 L60,120 M120,480 A60,60 0 0,1 180,420 L180,420 L660,420 A60,60 0 0,1 720,480 M240,240 A30,30 0 0,1 270,210 L270,210 A30,30 0 0,1 300,240 L300,240 A30,30 0 0,1 270,270 L270,270 A30,30 0 0,1 240,240 L240,240 L240,390 M540,240 A30,30 0 0,1 570,210 L570,210 A30,30 0 0,1 600,240 L600,240 A30,30 0 0,1 570,270 L570,270 A30,30 0 0,1 540,240 M600,240 L600,240 L600,90 M240,450 L240,450 M300,450 L300,450 M540,450 L540,450 M600,450 L600,450 M60,420 L60,420 L60,450 A60,60 0 0,0 120,510 L120,510 L720,510 A60,60 0 0,0 780,450 L780,450 L780,420 M120,495 L120,495 L720,495 M90,120 A30,30 0 0,1 120,90 L120,90 L720,90 A30,30 0 0,1 750,120 L750,120 L750,360 A30,30 0 0,1 720,390 L720,390 L120,390 A30,30 0 0,1 90,360 L90,360 L90,120 M270,195 A45,45 0 0,1 315,240 L315,240 A45,45 0 0,1 270,285 L270,285 A45,45 0 0,1 225,240 L225,240 A45,45 0 0,1 270,195 M570,195 A45,45 0 0,1 615,240 L615,240 A45,45 0 0,1 570,285 L570,285 A45,45 0 0,1 525,240 L525,240 A45,45 0 0,1 570,195 M225,240 L225,240 L225,390 M615,240 L615,240 L615,90 M570,195 L570,195 L270,195 M315,210 L315,210 L525,210 M315,270 L315,270 L525,270 M570,285 L570,285 L270,285 "/></svg>